<!DOCTYPE svg PUBLIC "-//W3C//DTD SVG 20010904//EN" "http://www.w3.org/TR/2001/REC-SVG-20010904/DTD/svg10.dtd">
<svg version="1.0" xmlns="http://www.w3.org/2000/svg" width="1161px" height="1200px" viewBox="0 0 11610 12000" preserveAspectRatio="xMidYMid meet">
<g id="layer101" fill="#b21c1c" stroke="none">
 <path d="M4264 11428 c-60 -84 -128 -177 -151 -205 -24 -29 -43 -56 -43 -59 0 -8 -91 -131 -156 -211 -24 -29 -50 -67 -59 -86 -9 -19 -29 -47 -44 -63 -15 -16 -70 -87 -121 -159 -146 -203 -196 -269 -214 -284 -9 -7 -16 -18 -16 -23 0 -12 -81 -127 -106 -153 -24 -23 -104 -134 -104 -143 0 -4 -19 -30 -41 -57 -23 -28 -91 -120 -152 -205 -62 -85 -130 -178 -153 -206 -23 -28 -49 -64 -57 -80 -9 -16 -38 -57 -65 -90 -47 -58 -118 -155 -367 -499 -56 -77 -114 -153 -129 -170 -16 -16 -37 -47 -47 -67 -10 -21 -38 -61 -62 -90 -51 -63 -120 -156 -202 -272 -33 -47 -65 -85 -71 -85 -6 -1 -21 100 -37 267 -39 377 -90 846 -139 1272 l-43 365 -26 -245 c-15 -135 -32 -303 -38 -375 -6 -71 -16 -168 -22 -215 -49 -415 -173 -1530 -189 -1705 -6 -66 -26 -255 -45 -420 -50 -431 -133 -1165 -137 -1200 -3 -30 -3 -30 -47 30 -24 33 -68 90 -98 126 -29 36 -53 70 -53 74 0 9 -69 105 -86 120 -11 9 -106 139 -129 177 -5 8 -35 49 -66 89 -30 41 -97 133 -149 204 -51 72 -104 141 -117 155 -14 13 -36 45 -51 70 -14 25 -49 74 -77 110 -29 36 -73 94 -99 130 -112 158 -151 209 -153 206 -2 -2 19 -52 47 -112 27 -60 50 -114 50 -121 0 -6 20 -53 44 -105 100 -212 156 -337 156 -348 0 -6 13 -39 29 -73 115 -248 156 -340 190 -425 21 -53 57 -135 79 -182 62 -131 92 -200 112 -255 10 -27 38 -93 62 -145 96 -202 138 -297 138 -309 0 -7 22 -59 50 -117 27 -58 50 -106 50 -109 0 -2 22 -51 49 -108 28 -57 53 -116 57 -131 4 -16 20 -55 35 -87 16 -33 29 -61 29 -64 0 -2 22 -50 49 -107 27 -57 58 -127 70 -155 11 -29 30 -75 41 -103 11 -27 38 -87 59 -132 56 -119 131 -291 131 -300 0 -4 20 -50 43 -100 79 -169 100 -218 94 -225 -8 -7 -29 1 -212 82 -123 54 -260 113 -405 176 -36 15 -133 59 -216 97 -83 38 -163 72 -177 76 -14 3 -67 26 -119 50 -221 104 -338 156 -350 156 -7 0 -26 7 -43 16 -44 23 -205 93 -205 89 0 -2 64 -50 143 -106 78 -56 174 -127 214 -158 39 -31 98 -73 130 -94 32 -21 81 -57 109 -80 28 -23 120 -91 204 -152 84 -60 159 -116 166 -122 7 -7 15 -13 18 -13 9 0 154 -108 204 -151 23 -20 57 -44 75 -52 17 -9 64 -41 102 -72 39 -31 99 -78 135 -103 36 -26 116 -85 179 -132 63 -47 128 -93 144 -103 33 -20 119 -85 204 -154 29 -23 67 -49 86 -58 19 -9 47 -29 63 -44 16 -15 88 -70 159 -121 203 -146 269 -196 284 -214 7 -9 18 -16 23 -16 12 0 127 -81 153 -106 23 -23 134 -104 143 -104 4 0 36 -24 72 -53 36 -28 132 -99 213 -157 81 -58 147 -107 147 -110 0 -7 -550 -71 -605 -70 -22 0 -231 -22 -465 -49 -234 -27 -516 -60 -627 -72 -111 -13 -201 -25 -199 -26 3 -3 546 -63 891 -98 138 -14 423 -45 635 -70 411 -47 844 -94 1105 -120 88 -8 356 -38 595 -65 239 -28 534 -62 655 -75 121 -14 235 -28 254 -31 l33 -5 -102 -77 c-154 -117 -166 -125 -210 -152 -22 -13 -53 -36 -68 -50 -33 -32 -167 -130 -176 -130 -4 0 -28 -17 -54 -39 -26 -21 -114 -87 -197 -146 -82 -59 -180 -132 -216 -161 -36 -30 -70 -54 -76 -54 -5 0 -37 -22 -71 -50 -56 -45 -186 -141 -223 -165 -31 -19 -119 -87 -119 -91 0 -5 44 12 108 44 31 16 71 32 87 36 27 7 127 52 363 162 51 24 99 44 106 44 12 0 106 42 271 120 95 45 176 80 224 97 25 8 86 35 137 59 135 64 295 134 306 134 5 0 61 25 124 55 64 30 118 55 120 55 2 0 47 20 98 45 52 25 100 45 107 45 12 0 106 42 314 140 55 26 118 53 140 60 42 14 103 41 250 110 50 23 137 61 195 85 58 23 166 71 240 105 74 34 182 82 240 105 58 24 169 72 247 108 79 36 143 63 143 60 0 -3 -11 -31 -24 -62 -13 -31 -34 -81 -46 -111 -19 -47 -93 -210 -161 -356 -10 -22 -19 -45 -19 -51 0 -11 -84 -197 -167 -373 -20 -41 -39 -88 -43 -105 -5 -16 -45 -109 -90 -205 -45 -96 -99 -218 -120 -270 -21 -52 -50 -122 -65 -155 -32 -73 -29 -69 70 70 116 162 158 218 183 245 13 14 30 39 38 56 8 17 37 58 64 90 26 32 75 97 107 144 32 46 66 93 75 104 10 10 66 87 125 170 59 83 133 182 164 221 31 38 63 84 72 100 9 17 46 69 84 116 37 47 117 154 176 236 59 83 117 160 127 171 11 12 20 24 20 28 0 9 96 139 142 192 20 24 50 67 67 95 16 29 42 66 57 84 16 17 54 65 84 107 160 222 228 312 243 325 9 7 17 19 17 26 0 6 30 51 67 99 38 48 95 125 128 172 33 46 96 132 139 191 44 60 107 145 140 190 33 46 63 83 67 83 8 0 12 -34 38 -290 81 -790 173 -1594 182 -1578 6 12 22 156 79 723 11 110 41 373 65 585 48 416 108 966 125 1150 10 109 61 555 150 1327 22 188 40 347 40 354 0 14 29 -24 171 -221 58 -80 129 -174 158 -210 29 -36 61 -82 72 -103 11 -21 29 -47 40 -58 10 -10 56 -70 101 -132 182 -250 213 -292 224 -302 6 -5 32 -42 57 -82 25 -39 55 -81 66 -92 24 -24 121 -156 121 -165 0 -6 78 -105 102 -131 13 -14 -2 24 -51 126 -22 48 -41 94 -41 102 0 9 -18 52 -40 96 -22 44 -40 82 -40 85 0 3 -24 56 -54 118 -29 62 -57 124 -61 138 -10 33 -57 141 -115 265 -26 55 -64 143 -85 195 -21 52 -60 142 -86 198 -27 57 -49 106 -49 108 0 3 -15 35 -33 72 -19 37 -37 81 -41 97 -4 17 -28 72 -52 123 -24 52 -44 95 -44 97 0 2 -25 56 -55 120 -30 63 -55 122 -55 130 0 7 -11 35 -24 62 -13 26 -38 82 -56 123 -18 41 -36 80 -40 85 -7 10 -50 109 -125 290 -21 50 -41 95 -45 100 -11 15 -120 267 -120 277 0 5 -25 61 -55 124 -30 64 -55 118 -55 120 0 2 -20 47 -45 98 -25 52 -45 100 -45 107 0 12 -73 176 -127 287 -15 28 -23 55 -20 59 4 3 40 -7 80 -24 39 -17 97 -41 127 -53 54 -22 88 -38 304 -139 60 -28 115 -51 122 -51 7 0 61 -23 119 -50 58 -27 108 -50 110 -50 2 0 51 -22 109 -50 58 -27 109 -50 114 -50 11 0 180 -74 298 -130 45 -21 123 -55 175 -76 52 -20 111 -45 131 -55 63 -32 56 -21 -21 34 -41 28 -131 94 -199 145 -69 50 -126 92 -128 92 -7 0 -158 112 -169 124 -18 22 -108 86 -119 86 -6 0 -36 22 -67 48 -31 26 -90 72 -133 102 -42 30 -131 96 -198 145 -67 50 -135 98 -151 108 -31 19 -148 106 -157 117 -12 15 -118 90 -127 90 -6 0 -30 17 -54 38 -24 22 -102 81 -174 132 -153 110 -240 176 -275 207 -14 13 -29 23 -35 23 -5 0 -41 25 -80 55 -38 30 -108 81 -155 114 -47 33 -92 66 -100 74 -8 7 -103 77 -210 154 -107 78 -208 153 -223 167 -16 14 -45 35 -65 46 -20 10 -64 40 -97 67 -32 26 -131 100 -219 164 -88 64 -161 120 -163 126 -2 5 66 16 164 26 93 9 238 24 323 32 144 15 788 87 1225 139 l190 22 -145 17 c-80 10 -163 17 -185 17 -38 0 -268 26 -1215 135 -217 25 -447 50 -510 56 -145 13 -663 69 -1055 114 -806 93 -918 105 -973 105 -32 0 -66 6 -76 13 -15 11 -4 22 106 102 128 93 241 177 311 233 23 18 56 39 72 47 17 8 43 27 58 41 15 14 120 93 233 175 113 82 211 154 217 160 7 5 32 23 57 39 25 16 85 61 135 100 49 40 105 80 125 90 19 10 50 33 69 50 19 18 52 43 73 57 64 43 36 37 -73 -15 -57 -27 -126 -57 -154 -67 -54 -19 -98 -39 -250 -110 -55 -26 -147 -66 -205 -90 -58 -23 -136 -57 -175 -75 -133 -62 -270 -122 -330 -144 -33 -13 -94 -39 -135 -59 -199 -94 -294 -137 -304 -137 -6 0 -90 -37 -186 -81 -96 -44 -219 -98 -272 -120 -53 -21 -159 -67 -235 -103 -76 -35 -162 -73 -190 -85 -126 -51 -158 -64 -333 -145 -102 -47 -191 -86 -197 -86 -7 0 -50 -18 -95 -39 -206 -98 -350 -161 -366 -161 -10 0 -26 -6 -37 -14 -31 -21 -235 -109 -240 -104 -8 7 52 156 130 323 74 158 115 252 115 263 0 6 20 52 44 104 105 223 155 336 162 363 4 17 10 35 15 40 4 6 23 47 42 90 19 44 51 115 71 158 20 43 59 130 85 195 27 64 56 134 65 155 9 20 15 37 13 37 -2 0 -53 -69 -113 -152z m1771 -2028 c83 -6 213 -19 290 -30 77 -11 160 -22 185 -26 116 -14 524 -135 612 -180 15 -8 36 -14 47 -14 11 0 130 -55 263 -123 298 -152 458 -257 743 -488 76 -62 355 -340 371 -371 8 -15 20 -31 27 -35 24 -14 143 -167 218 -280 39 -60 80 -117 90 -129 11 -11 39 -58 63 -105 24 -46 75 -142 113 -214 68 -129 86 -168 116 -255 8 -25 34 -94 57 -155 50 -133 113 -346 128 -435 91 -534 102 -865 41 -1272 -10 -73 -24 -167 -30 -208 -20 -140 -110 -441 -180 -602 -16 -36 -29 -74 -29 -82 0 -14 -83 -182 -200 -406 -63 -119 -261 -404 -371 -531 -58 -67 -373 -381 -441 -440 -121 -104 -499 -369 -528 -369 -7 0 -38 -15 -69 -34 -83 -50 -318 -166 -337 -166 -8 0 -46 -13 -82 -29 -103 -45 -354 -126 -477 -154 -109 -25 -307 -56 -500 -79 -130 -15 -541 -15 -675 1 -177 20 -380 52 -495 78 -119 27 -403 118 -490 158 -30 14 -62 25 -71 25 -21 0 -327 153 -363 181 -13 11 -31 19 -40 20 -38 1 -440 284 -556 390 -11 10 -55 50 -97 89 -205 186 -393 405 -538 625 -40 61 -76 112 -80 115 -12 10 -78 126 -146 260 -104 206 -121 243 -143 306 -11 33 -40 116 -65 186 -78 221 -130 425 -146 568 -5 41 -16 138 -26 215 -23 192 -23 578 0 770 10 77 21 174 26 215 16 145 74 369 156 600 61 173 103 280 124 315 10 17 50 93 89 170 74 147 91 176 209 350 255 376 583 705 951 953 63 42 130 87 148 100 101 68 448 238 588 288 340 121 500 163 750 198 300 42 522 52 770 36z"/>
 </g>

</svg>